<mxfile host="app.diagrams.net" modified="2024-03-02T22:54:35.822Z" agent="Mozilla/5.0 (Windows NT 10.0; Win64; x64) AppleWebKit/537.36 (KHTML, like Gecko) Chrome/121.0.0.0 Safari/537.36 OPR/107.0.0.0" etag="1BS7I1wvA2PeVZa_B8Fq" version="24.0.0" type="device">
  <diagram name="Page-1" id="R8JY_7U-1_xsHzjwjS7O">
    <mxGraphModel dx="1672" dy="741" grid="1" gridSize="10" guides="1" tooltips="1" connect="1" arrows="1" fold="1" page="1" pageScale="1" pageWidth="827" pageHeight="1169" math="0" shadow="0">
      <root>
        <mxCell id="0" />
        <mxCell id="1" parent="0" />
        <mxCell id="ZxKWNlBLuefbg63S-2ix-2" style="edgeStyle=orthogonalEdgeStyle;rounded=0;orthogonalLoop=1;jettySize=auto;html=1;" edge="1" parent="1" source="ZxKWNlBLuefbg63S-2ix-1">
          <mxGeometry relative="1" as="geometry">
            <mxPoint x="183" y="120" as="targetPoint" />
          </mxGeometry>
        </mxCell>
        <mxCell id="ZxKWNlBLuefbg63S-2ix-20" style="edgeStyle=none;rounded=0;orthogonalLoop=1;jettySize=auto;html=1;exitX=0;exitY=1;exitDx=0;exitDy=0;entryX=0.5;entryY=0;entryDx=0;entryDy=0;" edge="1" parent="1" source="ZxKWNlBLuefbg63S-2ix-1" target="ZxKWNlBLuefbg63S-2ix-9">
          <mxGeometry relative="1" as="geometry" />
        </mxCell>
        <mxCell id="ZxKWNlBLuefbg63S-2ix-21" style="edgeStyle=none;rounded=0;orthogonalLoop=1;jettySize=auto;html=1;exitX=1;exitY=1;exitDx=0;exitDy=0;entryX=0.5;entryY=0;entryDx=0;entryDy=0;" edge="1" parent="1" source="ZxKWNlBLuefbg63S-2ix-1" target="ZxKWNlBLuefbg63S-2ix-11">
          <mxGeometry relative="1" as="geometry" />
        </mxCell>
        <mxCell id="ZxKWNlBLuefbg63S-2ix-1" value="E" style="ellipse;whiteSpace=wrap;html=1;aspect=fixed;" vertex="1" parent="1">
          <mxGeometry x="163" y="40" width="40" height="40" as="geometry" />
        </mxCell>
        <mxCell id="ZxKWNlBLuefbg63S-2ix-3" value="+" style="ellipse;whiteSpace=wrap;html=1;aspect=fixed;" vertex="1" parent="1">
          <mxGeometry x="163" y="120" width="40" height="40" as="geometry" />
        </mxCell>
        <mxCell id="ZxKWNlBLuefbg63S-2ix-39" style="edgeStyle=none;rounded=0;orthogonalLoop=1;jettySize=auto;html=1;exitX=0.5;exitY=1;exitDx=0;exitDy=0;entryX=0.5;entryY=0;entryDx=0;entryDy=0;" edge="1" parent="1" source="ZxKWNlBLuefbg63S-2ix-9" target="ZxKWNlBLuefbg63S-2ix-38">
          <mxGeometry relative="1" as="geometry" />
        </mxCell>
        <mxCell id="ZxKWNlBLuefbg63S-2ix-9" value="E" style="ellipse;whiteSpace=wrap;html=1;aspect=fixed;" vertex="1" parent="1">
          <mxGeometry x="80" y="120" width="40" height="40" as="geometry" />
        </mxCell>
        <mxCell id="ZxKWNlBLuefbg63S-2ix-14" style="edgeStyle=none;rounded=0;orthogonalLoop=1;jettySize=auto;html=1;exitX=0.5;exitY=1;exitDx=0;exitDy=0;entryX=0.5;entryY=0;entryDx=0;entryDy=0;" edge="1" parent="1" source="ZxKWNlBLuefbg63S-2ix-11" target="ZxKWNlBLuefbg63S-2ix-13">
          <mxGeometry relative="1" as="geometry" />
        </mxCell>
        <mxCell id="ZxKWNlBLuefbg63S-2ix-11" value="T" style="ellipse;whiteSpace=wrap;html=1;aspect=fixed;" vertex="1" parent="1">
          <mxGeometry x="250" y="120" width="40" height="40" as="geometry" />
        </mxCell>
        <mxCell id="ZxKWNlBLuefbg63S-2ix-18" style="edgeStyle=none;rounded=0;orthogonalLoop=1;jettySize=auto;html=1;exitX=0.5;exitY=1;exitDx=0;exitDy=0;entryX=0.5;entryY=0;entryDx=0;entryDy=0;" edge="1" parent="1" source="ZxKWNlBLuefbg63S-2ix-13" target="ZxKWNlBLuefbg63S-2ix-15">
          <mxGeometry relative="1" as="geometry" />
        </mxCell>
        <mxCell id="ZxKWNlBLuefbg63S-2ix-19" style="edgeStyle=none;rounded=0;orthogonalLoop=1;jettySize=auto;html=1;exitX=0;exitY=1;exitDx=0;exitDy=0;entryX=0.5;entryY=0;entryDx=0;entryDy=0;" edge="1" parent="1" source="ZxKWNlBLuefbg63S-2ix-13" target="ZxKWNlBLuefbg63S-2ix-17">
          <mxGeometry relative="1" as="geometry" />
        </mxCell>
        <mxCell id="ZxKWNlBLuefbg63S-2ix-22" style="edgeStyle=none;rounded=0;orthogonalLoop=1;jettySize=auto;html=1;exitX=1;exitY=1;exitDx=0;exitDy=0;entryX=0.5;entryY=0;entryDx=0;entryDy=0;" edge="1" parent="1" source="ZxKWNlBLuefbg63S-2ix-13" target="ZxKWNlBLuefbg63S-2ix-16">
          <mxGeometry relative="1" as="geometry" />
        </mxCell>
        <mxCell id="ZxKWNlBLuefbg63S-2ix-13" value="F" style="ellipse;whiteSpace=wrap;html=1;aspect=fixed;" vertex="1" parent="1">
          <mxGeometry x="250" y="200" width="40" height="40" as="geometry" />
        </mxCell>
        <mxCell id="ZxKWNlBLuefbg63S-2ix-24" style="edgeStyle=none;rounded=0;orthogonalLoop=1;jettySize=auto;html=1;exitX=0.5;exitY=1;exitDx=0;exitDy=0;entryX=0.5;entryY=0;entryDx=0;entryDy=0;" edge="1" parent="1" source="ZxKWNlBLuefbg63S-2ix-15" target="ZxKWNlBLuefbg63S-2ix-23">
          <mxGeometry relative="1" as="geometry" />
        </mxCell>
        <mxCell id="ZxKWNlBLuefbg63S-2ix-15" value="E" style="ellipse;whiteSpace=wrap;html=1;aspect=fixed;" vertex="1" parent="1">
          <mxGeometry x="250" y="280" width="40" height="40" as="geometry" />
        </mxCell>
        <mxCell id="ZxKWNlBLuefbg63S-2ix-16" value=")" style="ellipse;whiteSpace=wrap;html=1;aspect=fixed;" vertex="1" parent="1">
          <mxGeometry x="300" y="280" width="40" height="40" as="geometry" />
        </mxCell>
        <mxCell id="ZxKWNlBLuefbg63S-2ix-17" value="(" style="ellipse;whiteSpace=wrap;html=1;aspect=fixed;" vertex="1" parent="1">
          <mxGeometry x="200" y="280" width="40" height="40" as="geometry" />
        </mxCell>
        <mxCell id="ZxKWNlBLuefbg63S-2ix-28" style="edgeStyle=none;rounded=0;orthogonalLoop=1;jettySize=auto;html=1;exitX=0;exitY=1;exitDx=0;exitDy=0;entryX=0.5;entryY=0;entryDx=0;entryDy=0;" edge="1" parent="1" source="ZxKWNlBLuefbg63S-2ix-23" target="ZxKWNlBLuefbg63S-2ix-26">
          <mxGeometry relative="1" as="geometry" />
        </mxCell>
        <mxCell id="ZxKWNlBLuefbg63S-2ix-29" style="edgeStyle=none;rounded=0;orthogonalLoop=1;jettySize=auto;html=1;exitX=0.5;exitY=1;exitDx=0;exitDy=0;" edge="1" parent="1" source="ZxKWNlBLuefbg63S-2ix-23" target="ZxKWNlBLuefbg63S-2ix-25">
          <mxGeometry relative="1" as="geometry" />
        </mxCell>
        <mxCell id="ZxKWNlBLuefbg63S-2ix-30" style="edgeStyle=none;rounded=0;orthogonalLoop=1;jettySize=auto;html=1;exitX=1;exitY=1;exitDx=0;exitDy=0;entryX=0.5;entryY=0;entryDx=0;entryDy=0;" edge="1" parent="1" source="ZxKWNlBLuefbg63S-2ix-23" target="ZxKWNlBLuefbg63S-2ix-27">
          <mxGeometry relative="1" as="geometry" />
        </mxCell>
        <mxCell id="ZxKWNlBLuefbg63S-2ix-23" value="T" style="ellipse;whiteSpace=wrap;html=1;aspect=fixed;" vertex="1" parent="1">
          <mxGeometry x="250" y="360" width="40" height="40" as="geometry" />
        </mxCell>
        <mxCell id="ZxKWNlBLuefbg63S-2ix-25" value="*" style="ellipse;whiteSpace=wrap;html=1;aspect=fixed;" vertex="1" parent="1">
          <mxGeometry x="250" y="440" width="40" height="40" as="geometry" />
        </mxCell>
        <mxCell id="ZxKWNlBLuefbg63S-2ix-35" style="edgeStyle=none;rounded=0;orthogonalLoop=1;jettySize=auto;html=1;exitX=0.5;exitY=1;exitDx=0;exitDy=0;entryX=0.5;entryY=0;entryDx=0;entryDy=0;" edge="1" parent="1" source="ZxKWNlBLuefbg63S-2ix-26" target="ZxKWNlBLuefbg63S-2ix-34">
          <mxGeometry relative="1" as="geometry" />
        </mxCell>
        <mxCell id="ZxKWNlBLuefbg63S-2ix-26" value="T" style="ellipse;whiteSpace=wrap;html=1;aspect=fixed;" vertex="1" parent="1">
          <mxGeometry x="200" y="440" width="40" height="40" as="geometry" />
        </mxCell>
        <mxCell id="ZxKWNlBLuefbg63S-2ix-32" style="edgeStyle=none;rounded=0;orthogonalLoop=1;jettySize=auto;html=1;exitX=0.5;exitY=1;exitDx=0;exitDy=0;entryX=0.5;entryY=0;entryDx=0;entryDy=0;" edge="1" parent="1" source="ZxKWNlBLuefbg63S-2ix-27" target="ZxKWNlBLuefbg63S-2ix-31">
          <mxGeometry relative="1" as="geometry" />
        </mxCell>
        <mxCell id="ZxKWNlBLuefbg63S-2ix-27" value="F" style="ellipse;whiteSpace=wrap;html=1;aspect=fixed;" vertex="1" parent="1">
          <mxGeometry x="300" y="440" width="40" height="40" as="geometry" />
        </mxCell>
        <mxCell id="ZxKWNlBLuefbg63S-2ix-31" value="4" style="ellipse;whiteSpace=wrap;html=1;aspect=fixed;" vertex="1" parent="1">
          <mxGeometry x="300" y="520" width="40" height="40" as="geometry" />
        </mxCell>
        <mxCell id="ZxKWNlBLuefbg63S-2ix-37" style="edgeStyle=none;rounded=0;orthogonalLoop=1;jettySize=auto;html=1;exitX=0.5;exitY=1;exitDx=0;exitDy=0;entryX=0.5;entryY=0;entryDx=0;entryDy=0;" edge="1" parent="1" source="ZxKWNlBLuefbg63S-2ix-34" target="ZxKWNlBLuefbg63S-2ix-36">
          <mxGeometry relative="1" as="geometry" />
        </mxCell>
        <mxCell id="ZxKWNlBLuefbg63S-2ix-34" value="F" style="ellipse;whiteSpace=wrap;html=1;aspect=fixed;" vertex="1" parent="1">
          <mxGeometry x="200" y="520" width="40" height="40" as="geometry" />
        </mxCell>
        <mxCell id="ZxKWNlBLuefbg63S-2ix-36" value="w" style="ellipse;whiteSpace=wrap;html=1;aspect=fixed;" vertex="1" parent="1">
          <mxGeometry x="200" y="600" width="40" height="40" as="geometry" />
        </mxCell>
        <mxCell id="ZxKWNlBLuefbg63S-2ix-41" style="edgeStyle=none;rounded=0;orthogonalLoop=1;jettySize=auto;html=1;exitX=0.5;exitY=1;exitDx=0;exitDy=0;entryX=0.5;entryY=0;entryDx=0;entryDy=0;" edge="1" parent="1" source="ZxKWNlBLuefbg63S-2ix-38" target="ZxKWNlBLuefbg63S-2ix-40">
          <mxGeometry relative="1" as="geometry" />
        </mxCell>
        <mxCell id="ZxKWNlBLuefbg63S-2ix-38" value="T" style="ellipse;whiteSpace=wrap;html=1;aspect=fixed;" vertex="1" parent="1">
          <mxGeometry x="80" y="200" width="40" height="40" as="geometry" />
        </mxCell>
        <mxCell id="ZxKWNlBLuefbg63S-2ix-40" value="F" style="ellipse;whiteSpace=wrap;html=1;aspect=fixed;" vertex="1" parent="1">
          <mxGeometry x="80" y="280" width="40" height="40" as="geometry" />
        </mxCell>
        <mxCell id="ZxKWNlBLuefbg63S-2ix-42" style="edgeStyle=none;rounded=0;orthogonalLoop=1;jettySize=auto;html=1;exitX=0.5;exitY=1;exitDx=0;exitDy=0;entryX=0.5;entryY=0;entryDx=0;entryDy=0;" edge="1" target="ZxKWNlBLuefbg63S-2ix-43" parent="1">
          <mxGeometry relative="1" as="geometry">
            <mxPoint x="100" y="320" as="sourcePoint" />
          </mxGeometry>
        </mxCell>
        <mxCell id="ZxKWNlBLuefbg63S-2ix-43" value="x" style="ellipse;whiteSpace=wrap;html=1;aspect=fixed;" vertex="1" parent="1">
          <mxGeometry x="80" y="360" width="40" height="40" as="geometry" />
        </mxCell>
        <mxCell id="ZxKWNlBLuefbg63S-2ix-49" style="edgeStyle=none;rounded=0;orthogonalLoop=1;jettySize=auto;html=1;exitX=0;exitY=1;exitDx=0;exitDy=0;entryX=0.5;entryY=0;entryDx=0;entryDy=0;" edge="1" parent="1" source="ZxKWNlBLuefbg63S-2ix-44" target="ZxKWNlBLuefbg63S-2ix-45">
          <mxGeometry relative="1" as="geometry" />
        </mxCell>
        <mxCell id="ZxKWNlBLuefbg63S-2ix-50" style="edgeStyle=none;rounded=0;orthogonalLoop=1;jettySize=auto;html=1;exitX=1;exitY=1;exitDx=0;exitDy=0;entryX=0.5;entryY=0;entryDx=0;entryDy=0;" edge="1" parent="1" source="ZxKWNlBLuefbg63S-2ix-44" target="ZxKWNlBLuefbg63S-2ix-46">
          <mxGeometry relative="1" as="geometry" />
        </mxCell>
        <mxCell id="ZxKWNlBLuefbg63S-2ix-44" value="+" style="ellipse;whiteSpace=wrap;html=1;aspect=fixed;" vertex="1" parent="1">
          <mxGeometry x="600" y="40" width="40" height="40" as="geometry" />
        </mxCell>
        <mxCell id="ZxKWNlBLuefbg63S-2ix-45" value="x" style="ellipse;whiteSpace=wrap;html=1;aspect=fixed;" vertex="1" parent="1">
          <mxGeometry x="560" y="120" width="40" height="40" as="geometry" />
        </mxCell>
        <mxCell id="ZxKWNlBLuefbg63S-2ix-51" style="edgeStyle=none;rounded=0;orthogonalLoop=1;jettySize=auto;html=1;exitX=0;exitY=1;exitDx=0;exitDy=0;entryX=0.5;entryY=0;entryDx=0;entryDy=0;" edge="1" parent="1" source="ZxKWNlBLuefbg63S-2ix-46" target="ZxKWNlBLuefbg63S-2ix-47">
          <mxGeometry relative="1" as="geometry" />
        </mxCell>
        <mxCell id="ZxKWNlBLuefbg63S-2ix-52" style="edgeStyle=none;rounded=0;orthogonalLoop=1;jettySize=auto;html=1;exitX=1;exitY=1;exitDx=0;exitDy=0;entryX=0.5;entryY=0;entryDx=0;entryDy=0;" edge="1" parent="1" source="ZxKWNlBLuefbg63S-2ix-46" target="ZxKWNlBLuefbg63S-2ix-48">
          <mxGeometry relative="1" as="geometry" />
        </mxCell>
        <mxCell id="ZxKWNlBLuefbg63S-2ix-46" value="*" style="ellipse;whiteSpace=wrap;html=1;aspect=fixed;" vertex="1" parent="1">
          <mxGeometry x="640" y="120" width="40" height="40" as="geometry" />
        </mxCell>
        <mxCell id="ZxKWNlBLuefbg63S-2ix-47" value="w" style="ellipse;whiteSpace=wrap;html=1;aspect=fixed;" vertex="1" parent="1">
          <mxGeometry x="600" y="200" width="40" height="40" as="geometry" />
        </mxCell>
        <mxCell id="ZxKWNlBLuefbg63S-2ix-48" value="4" style="ellipse;whiteSpace=wrap;html=1;aspect=fixed;" vertex="1" parent="1">
          <mxGeometry x="680" y="200" width="40" height="40" as="geometry" />
        </mxCell>
      </root>
    </mxGraphModel>
  </diagram>
</mxfile>
